<svg width="20" height="20" viewBox="0 0 20 20" fill="none" xmlns="http://www.w3.org/2000/svg">
<path fill-rule="evenodd" clip-rule="evenodd" d="M10 1.75C6.76534 1.75 4.03685 4.15865 3.63564 7.36836L2.81154 13.9612C2.6375 15.3535 3.72316 16.5833 5.12635 16.5833H6.17926L6.18988 16.6072C6.85909 18.113 8.35227 19.0833 10 19.0833C11.6477 19.0833 13.1409 18.113 13.8101 16.6072L13.8207 16.5833H14.8737C16.2769 16.5833 17.3625 15.3535 17.1885 13.9612L16.3644 7.36836C15.9632 4.15866 13.2347 1.75 10 1.75ZM13.3505 15.0833C13.3393 15.0831 13.3281 15.0831 13.317 15.0833H6.68297C6.67184 15.0831 6.66069 15.0831 6.64953 15.0833H5.12635C4.62541 15.0833 4.23782 14.6443 4.29996 14.1472L5.12406 7.55441C5.43144 5.09535 7.52182 3.25 10 3.25C12.4782 3.25 14.5686 5.09535 14.876 7.55441L15.7001 14.1472C15.7622 14.6443 15.3746 15.0833 14.8737 15.0833H13.3505ZM7.91684 16.5833H12.0832C11.5841 17.2061 10.8221 17.5833 10 17.5833C9.17792 17.5833 8.41593 17.2061 7.91684 16.5833Z" fill="#5B5EA6"/>
</svg>
