<svg width="16" height="16" viewBox="0 0 16 16" fill="none" xmlns="http://www.w3.org/2000/svg">
<g clip-path="url(#clip0_2_126)">
<path fill-rule="evenodd" clip-rule="evenodd" d="M6.08333 0.666667C6.08333 0.252453 5.74755 -0.0833333 5.33333 -0.0833333C4.91912 -0.0833333 4.58333 0.252453 4.58333 0.666667V1.46527C2.71431 2.04836 1.34363 3.75195 1.25452 5.79281C1.24999 5.8966 1.24999 6.01494 1.25 6.20106L1.25 6.22222V8L1.25 8.02737C1.25 8.93607 1.24999 9.65625 1.2898 10.2397C1.33047 10.8357 1.41517 11.3436 1.61157 11.8177C2.09367 12.9816 3.01837 13.9063 4.18225 14.3884C4.65641 14.5848 5.16431 14.6695 5.76032 14.7102C6.34374 14.75 7.0639 14.75 7.97256 14.75H7.97262H8H8.02739H8.02744C8.9361 14.75 9.65626 14.75 10.2397 14.7102C10.8357 14.6695 11.3436 14.5848 11.8177 14.3884C12.9816 13.9063 13.9063 12.9816 14.3884 11.8177C14.5848 11.3436 14.6695 10.8357 14.7102 10.2397C14.75 9.65626 14.75 8.9361 14.75 8.02744V8.02738V8V7.97262V7.97256C14.75 7.0639 14.75 6.34374 14.7102 5.76032C14.6695 5.16431 14.5848 4.65641 14.3884 4.18225C13.9063 3.01837 12.9816 2.09367 11.8177 1.61157C11.687 1.55741 11.5537 1.51175 11.4167 1.47316V0.666667C11.4167 0.252453 11.0809 -0.0833333 10.6667 -0.0833333C10.2525 -0.0833333 9.91667 0.252453 9.91667 0.666667V1.27218C9.39534 1.24999 8.7752 1.25 8.02738 1.25H8H6.22222L6.20106 1.25H6.20106L6.08333 1.25005V0.666667ZM10.6667 3.41667C10.2889 3.41667 9.97637 3.13737 9.92429 2.77401C9.43223 2.75031 8.81941 2.75 8 2.75H6.22222L6.07875 2.75008C6.03726 3.12504 5.71935 3.41667 5.33333 3.41667C5.0512 3.41667 4.80545 3.26088 4.67741 3.03063C3.58232 3.51883 2.80829 4.59394 2.75309 5.85824C2.75018 5.92496 2.75 6.00797 2.75 6.22222V8C2.75 8.94214 2.75041 9.61119 2.78632 10.1376C2.82178 10.6572 2.88931 10.9828 2.99739 11.2437C3.32725 12.0401 3.95994 12.6728 4.75628 13.0026C5.0172 13.1107 5.34279 13.1782 5.86243 13.2137C6.38881 13.2496 7.05786 13.25 8 13.25C8.94215 13.25 9.61119 13.2496 10.1376 13.2137C10.6572 13.1782 10.9828 13.1107 11.2437 13.0026C12.0401 12.6728 12.6728 12.0401 13.0026 11.2437C13.1107 10.9828 13.1782 10.6572 13.2137 10.1376C13.2496 9.61119 13.25 8.94214 13.25 8C13.25 7.05786 13.2496 6.38881 13.2137 5.86243C13.1782 5.34279 13.1107 5.0172 13.0026 4.75628C12.6837 3.98631 12.0816 3.36933 11.3223 3.03115C11.1942 3.26111 10.9486 3.41667 10.6667 3.41667ZM4.66667 4.58333C4.25245 4.58333 3.91667 4.91912 3.91667 5.33333C3.91667 5.74755 4.25245 6.08333 4.66667 6.08333H11.3333C11.7475 6.08333 12.0833 5.74755 12.0833 5.33333C12.0833 4.91912 11.7475 4.58333 11.3333 4.58333H4.66667Z" fill="#263D36"/>
</g>
<defs>
<clipPath id="clip0_2_126">
<rect width="16" height="16" fill="white"/>
</clipPath>
</defs>
</svg>
