<svg width="24" height="24" viewBox="0 0 24 24" fill="none" xmlns="http://www.w3.org/2000/svg">
<path fill-rule="evenodd" clip-rule="evenodd" d="M19.0945 3.81654C18.6115 3.75159 17.964 3.75 16.9999 3.75H11.9999C11.5237 3.75 11.2041 3.75041 10.9567 3.76729C10.716 3.78372 10.5987 3.81319 10.5216 3.84515C10.2153 3.97202 9.97196 4.21536 9.84509 4.52165C9.81313 4.5988 9.78366 4.71602 9.76723 4.95674C9.76126 5.04424 9.75735 5.14074 9.75479 5.25H13.9999L14.0519 5.25C14.9504 5.24997 15.6996 5.24995 16.2944 5.32991C16.9222 5.41432 17.489 5.59999 17.9445 6.05546C18.4 6.51093 18.5856 7.07773 18.67 7.70552C18.75 8.30027 18.75 9.04943 18.7499 9.94784V9.94786V9.94801L18.7499 10V14.2452C18.8592 14.2426 18.9557 14.2387 19.0432 14.2327C19.2839 14.2163 19.4011 14.1868 19.4783 14.1549C19.7846 14.028 20.0279 13.7846 20.1548 13.4784C20.1867 13.4012 20.2162 13.284 20.2327 13.0433C20.2495 12.7958 20.2499 12.4762 20.2499 12V7C20.2499 6.03599 20.2483 5.38843 20.1834 4.90539C20.1214 4.44393 20.0141 4.24643 19.8838 4.11612C19.7535 3.9858 19.556 3.87858 19.0945 3.81654ZM8.27071 4.85464C8.26236 4.97703 8.25736 5.11015 8.25438 5.25444C8.11008 5.25743 7.97697 5.26242 7.85458 5.27077C7.53748 5.29241 7.23795 5.33905 6.94756 5.45933C6.27373 5.73844 5.73838 6.2738 5.45927 6.94762C5.33899 7.23801 5.29235 7.53754 5.27071 7.85464C5.26189 7.98396 5.25681 8.12525 5.25389 8.27905C5.05852 8.2907 4.87567 8.30703 4.70546 8.32992C4.07767 8.41432 3.51087 8.59999 3.0554 9.05546C2.59993 9.51093 2.41426 10.0777 2.32985 10.7055C2.24989 11.3003 2.24991 12.0495 2.24994 12.948V12.948L2.24994 13V17L2.24994 17.052V17.052C2.24991 17.9505 2.24989 18.6997 2.32985 19.2945C2.41426 19.9223 2.59993 20.4891 3.0554 20.9445C3.51087 21.4 4.07767 21.5857 4.70546 21.6701C5.30024 21.7501 6.04945 21.75 6.94792 21.75H6.94795L6.99994 21.75H10.9999L11.0519 21.75H11.052C11.9504 21.75 12.6996 21.7501 13.2944 21.6701C13.9222 21.5857 14.489 21.4 14.9445 20.9445C15.4 20.4891 15.5856 19.9223 15.67 19.2945C15.6929 19.1243 15.7092 18.9414 15.7209 18.7461C15.8747 18.7431 16.016 18.7381 16.1453 18.7292C16.4624 18.7076 16.7619 18.661 17.0523 18.5407C17.7261 18.2616 18.2615 17.7262 18.5406 17.0524C18.6609 16.762 18.7075 16.4625 18.7292 16.1454C18.7375 16.023 18.7425 15.8899 18.7455 15.7456C18.8898 15.7426 19.0229 15.7376 19.1453 15.7292C19.4624 15.7076 19.7619 15.661 20.0523 15.5407C20.7261 15.2616 21.2615 14.7262 21.5406 14.0524C21.6609 13.762 21.7075 13.4625 21.7292 13.1454C21.75 12.8408 21.7499 12.4697 21.7499 12.0253V12V7L21.7499 6.94801V6.94798V6.94794C21.75 6.04949 21.75 5.30029 21.67 4.70552C21.5856 4.07773 21.4 3.51093 20.9445 3.05546C20.489 2.59999 19.9222 2.41432 19.2944 2.32991C18.6996 2.24995 17.9504 2.24997 17.0519 2.25H16.9999H11.9999H11.9747H11.9747C11.5302 2.24999 11.1592 2.24999 10.8546 2.27077C10.5375 2.29241 10.2379 2.33905 9.94756 2.45933C9.27373 2.73844 8.73838 3.2738 8.45927 3.94762C8.33899 4.23801 8.29235 4.53754 8.27071 4.85464ZM15.7499 17.2452C15.8592 17.2426 15.9557 17.2387 16.0432 17.2327C16.2839 17.2163 16.4011 17.1868 16.4783 17.1549C16.7846 17.028 17.0279 16.7846 17.1548 16.4784C17.1867 16.4012 17.2162 16.284 17.2327 16.0433C17.2495 15.7958 17.2499 15.4762 17.2499 15V10C17.2499 9.03599 17.2483 8.38843 17.1834 7.90539C17.1214 7.44393 17.0141 7.24644 16.8838 7.11612C16.7535 6.9858 16.556 6.87858 16.0945 6.81654C15.6115 6.7516 14.964 6.75 13.9999 6.75H8.99994C8.52374 6.75 8.20415 6.75041 7.95668 6.76729C7.71596 6.78372 7.59874 6.8132 7.52159 6.84515C7.2153 6.97202 6.97196 7.21536 6.84509 7.52165C6.81313 7.5988 6.78366 7.71602 6.76723 7.95674C6.76126 8.04424 6.75735 8.14076 6.75479 8.25003C6.81839 8.25 6.88277 8.25 6.94794 8.25L6.99994 8.25H10.9999L11.0519 8.25C11.9504 8.24997 12.6996 8.24995 13.2944 8.32992C13.9222 8.41432 14.489 8.59999 14.9445 9.05546C15.4 9.51093 15.5856 10.0777 15.67 10.7055C15.75 11.3003 15.75 12.0495 15.7499 12.948V12.948L15.7499 13V17L15.7499 17.052V17.052C15.7499 17.1172 15.7499 17.1816 15.7499 17.2452ZM4.11606 10.1161C4.24638 9.9858 4.44387 9.87858 4.90533 9.81654C5.38837 9.7516 6.03593 9.75 6.99994 9.75H10.9999C11.964 9.75 12.6115 9.7516 13.0946 9.81654C13.556 9.87858 13.7535 9.9858 13.8838 10.1161C14.0141 10.2464 14.1214 10.4439 14.1834 10.9054C14.2483 11.3884 14.2499 12.036 14.2499 13V17C14.2499 17.964 14.2483 18.6116 14.1834 19.0946C14.1214 19.5561 14.0141 19.7536 13.8838 19.8839C13.7535 20.0142 13.556 20.1214 13.0946 20.1835C12.6115 20.2484 11.964 20.25 10.9999 20.25H6.99994C6.03593 20.25 5.38837 20.2484 4.90533 20.1835C4.44387 20.1214 4.24638 20.0142 4.11606 19.8839C3.98574 19.7536 3.87852 19.5561 3.81648 19.0946C3.75154 18.6116 3.74994 17.964 3.74994 17V13C3.74994 12.036 3.75154 11.3884 3.81648 10.9054C3.87852 10.4439 3.98574 10.2464 4.11606 10.1161Z" fill="#5B5EA6"/>
</svg>
